<svg width="207" height="110" viewBox="0 0 207 110" fill="none" xmlns="http://www.w3.org/2000/svg">
<g clip-path="url(#clip0_58_1764)">
<path d="M8.78182 17.6H13.1727V22H8.78182V17.6ZM4.39091 22H8.78182V26.4H4.39091V22ZM13.1727 13.2H17.5636V17.6H13.1727V13.2ZM17.5636 8.79999H21.9545V13.2H17.5636V8.79999ZM26.3455 0H30.7364V4.39999H26.3455V0ZM26.3455 4.39999H30.7364V8.79999H26.3455V4.39999ZM35.1273 0H39.5182V4.39999H35.1273V0ZM35.1273 4.39999H39.5182V8.79999H35.1273V4.39999ZM30.7364 4.39999H35.1273V8.79999H30.7364V4.39999ZM30.7364 0H35.1273V4.39999H30.7364V0ZM39.5182 0H43.9091V4.39999H39.5182V0ZM43.9091 4.39999H48.3V8.79999H43.9091V4.39999ZM39.5182 4.39999H43.9091V8.79999H39.5182V4.39999ZM52.6909 4.39999H57.0818V8.79999H52.6909V4.39999ZM48.3 4.39999H52.6909V8.79999H48.3V4.39999ZM61.4727 8.79999H65.8636V13.2H61.4727V8.79999ZM61.4727 13.2H65.8636V17.6H61.4727V13.2ZM61.4727 17.6H65.8636V22H61.4727V17.6ZM57.0818 13.2H61.4727V17.6H57.0818V13.2ZM57.0818 8.79999H61.4727V13.2H57.0818V8.79999ZM57.0818 4.39999H61.4727V8.79999H57.0818V4.39999ZM87.8182 4.39999H92.2091V8.79999H87.8182V4.39999ZM92.2091 0H96.6V4.39999H92.2091V0ZM96.6 0H100.991V4.39999H96.6V0ZM96.6 4.39999H100.991V8.79999H96.6V4.39999ZM92.2091 4.39999H96.6V8.79999H92.2091V4.39999ZM105.382 8.79999H109.773V13.2H105.382V8.79999ZM65.8636 13.2H70.2545V17.6H65.8636V13.2ZM65.8636 17.6H70.2545V22H65.8636V17.6ZM70.2545 17.6H74.6454V22H70.2545V17.6ZM74.6454 17.6H79.0364V22H74.6454V17.6ZM79.0364 17.6H83.4273V22H79.0364V17.6ZM79.0364 22H83.4273V26.4H79.0364V22ZM74.6454 22H79.0364V26.4H74.6454V22ZM70.2545 22H74.6454V26.4H70.2545V22ZM48.3 26.4H52.6909V30.8H48.3V26.4ZM48.3 30.8H52.6909V35.2H48.3V30.8ZM70.2545 26.4H74.6454V30.8H70.2545V26.4ZM74.6454 26.4H79.0364V30.8H74.6454V26.4ZM79.0364 26.4H83.4273V30.8H79.0364V26.4ZM79.0364 30.8H83.4273V35.2H79.0364V30.8ZM74.6454 35.2H79.0364V39.6H74.6454V35.2ZM70.2545 35.2H74.6454V39.6H70.2545V35.2ZM74.6454 30.8H79.0364V35.2H74.6454V30.8ZM70.2545 30.8H74.6454V35.2H70.2545V30.8ZM65.8636 39.6H70.2545V44H65.8636V39.6ZM65.8636 35.2H70.2545V39.6H65.8636V35.2ZM70.2545 39.6H74.6454V44H70.2545V39.6ZM74.6454 39.6H79.0364V44H74.6454V39.6ZM43.9091 26.4H48.3V30.8H43.9091V26.4ZM43.9091 30.8H48.3V35.2H43.9091V30.8ZM43.9091 35.2H48.3V39.6H43.9091V35.2ZM43.9091 39.6H48.3V44H43.9091V39.6ZM48.3 61.6H52.6909V66H48.3V61.6ZM52.6909 61.6H57.0818V66H52.6909V61.6ZM65.8636 44H70.2545V48.4H65.8636V44ZM65.8636 48.4H70.2545V52.8H65.8636V48.4ZM65.8636 52.8H70.2545V57.2H65.8636V52.8ZM65.8636 57.2H70.2545V61.6H65.8636V57.2ZM70.2545 44H74.6454V48.4H70.2545V44ZM70.2545 48.4H74.6454V52.8H70.2545V48.4ZM70.2545 52.8H74.6454V57.2H70.2545V52.8ZM70.2545 57.2H74.6454V61.6H70.2545V57.2ZM65.8636 66H70.2545V70.4H65.8636V66ZM70.2545 66H74.6454V70.4H70.2545V66ZM74.6454 61.6H79.0364V66H74.6454V61.6ZM74.6454 57.2H79.0364V61.6H74.6454V57.2ZM74.6454 52.8H79.0364V57.2H74.6454V52.8ZM74.6454 48.4H79.0364V52.8H74.6454V48.4ZM74.6454 44H79.0364V48.4H74.6454V44ZM74.6454 66H79.0364V70.4H74.6454V66ZM79.0364 70.4H83.4273V74.8H79.0364V70.4ZM79.0364 74.8H83.4273V79.2H79.0364V74.8ZM74.6454 74.8H79.0364V79.2H74.6454V74.8ZM70.2545 74.8H74.6454V79.2H70.2545V74.8ZM65.8636 74.8H70.2545V79.2H65.8636V74.8ZM65.8636 70.4H70.2545V74.8H65.8636V70.4ZM70.2545 70.4H74.6454V74.8H70.2545V70.4ZM74.6454 70.4H79.0364V74.8H74.6454V70.4ZM21.9545 83.6H26.3455V88H21.9545V83.6ZM17.5636 88H21.9545V92.4H17.5636V88ZM13.1727 92.4H17.5636V96.8H13.1727V92.4ZM65.8636 79.2H70.2545V83.6H65.8636V79.2ZM70.2545 79.2H74.6454V83.6H70.2545V79.2ZM74.6454 79.2H79.0364V83.6H74.6454V79.2ZM79.0364 79.2H83.4273V83.6H79.0364V79.2ZM17.5636 92.4H21.9545V96.8H17.5636V92.4ZM21.9545 92.4H26.3455V96.8H21.9545V92.4ZM21.9545 96.8H26.3455V101.2H21.9545V96.8ZM17.5636 96.8H21.9545V101.2H17.5636V96.8ZM26.3455 96.8H30.7364V101.2H26.3455V96.8ZM48.3 92.4H52.6909V96.8H48.3V92.4ZM48.3 96.8H52.6909V101.2H48.3V96.8ZM43.9091 96.8H48.3V101.2H43.9091V96.8ZM52.6909 88H57.0818V92.4H52.6909V88ZM65.8636 83.6H70.2545V88H65.8636V83.6ZM70.2545 83.6H74.6454V88H70.2545V83.6ZM74.6454 83.6H79.0364V88H74.6454V83.6ZM79.0364 83.6H83.4273V88H79.0364V83.6ZM79.0364 88H83.4273V92.4H79.0364V88ZM74.6454 88H79.0364V92.4H74.6454V88ZM70.2545 88H74.6454V92.4H70.2545V88ZM65.8636 88H70.2545V92.4H65.8636V88ZM65.8636 92.4H70.2545V96.8H65.8636V92.4ZM65.8636 96.8H70.2545V101.2H65.8636V96.8ZM70.2545 96.8H74.6454V101.2H70.2545V96.8ZM74.6454 96.8H79.0364V101.2H74.6454V96.8ZM74.6454 92.4H79.0364V96.8H74.6454V92.4ZM79.0364 92.4H83.4273V96.8H79.0364V92.4ZM70.2545 92.4H74.6454V96.8H70.2545V92.4ZM79.0364 96.8H83.4273V101.2H79.0364V96.8ZM74.6454 101.2H79.0364V105.6H74.6454V101.2ZM74.6454 105.6H79.0364V110H74.6454V105.6ZM79.0364 105.6H83.4273V110H79.0364V105.6ZM79.0364 101.2H83.4273V105.6H79.0364V101.2ZM87.8182 101.2H92.2091V105.6H87.8182V101.2ZM87.8182 105.6H92.2091V110H87.8182V105.6ZM83.4273 105.6H87.8182V110H83.4273V105.6ZM96.6 92.4H100.991V96.8H96.6V92.4ZM96.6 96.8H100.991V101.2H96.6V96.8ZM92.2091 96.8H96.6V101.2H92.2091V96.8ZM92.2091 101.2H96.6V105.6H92.2091V101.2ZM70.2545 101.2H74.6454V105.6H70.2545V101.2ZM39.5182 101.2H43.9091V105.6H39.5182V101.2ZM35.1273 101.2H39.5182V105.6H35.1273V101.2ZM35.1273 105.6H39.5182V110H35.1273V105.6ZM39.5182 105.6H43.9091V110H39.5182V105.6ZM30.7364 101.2H35.1273V105.6H30.7364V101.2ZM26.3455 105.6H30.7364V110H26.3455V105.6ZM30.7364 105.6H35.1273V110H30.7364V105.6ZM26.3455 101.2H30.7364V105.6H26.3455V101.2ZM43.9091 101.2H48.3V105.6H43.9091V101.2ZM52.6909 92.4H57.0818V96.8H52.6909V92.4ZM100.991 4.39999H105.382V8.79999H100.991V4.39999ZM8.78182 96.8H13.1727V101.2H8.78182V96.8ZM21.9545 88H26.3455V92.4H21.9545V88ZM83.4273 101.2H87.8182V105.6H83.4273V101.2ZM4.39091 101.2H8.78182V105.6H4.39091V101.2ZM43.9091 57.2H48.3V61.6H43.9091V57.2ZM43.9091 48.4H48.3V52.8H43.9091V48.4ZM43.9091 52.8H48.3V57.2H43.9091V52.8ZM43.9091 44H48.3V48.4H43.9091V44ZM48.3 35.2H52.6909V39.6H48.3V35.2ZM48.3 39.6H52.6909V44H48.3V39.6ZM30.7364 74.8H35.1273V79.2H30.7364V74.8ZM52.6909 8.79999H57.0818V13.2H52.6909V8.79999ZM79.0364 66H83.4273V70.4H79.0364V66ZM21.9545 101.2H26.3455V105.6H21.9545V101.2ZM35.1273 22H39.5182V26.4H35.1273V22ZM39.5182 22H43.9091V26.4H39.5182V22ZM43.9091 22H48.3V26.4H43.9091V22ZM43.9091 0H48.3V4.39999H43.9091V0ZM39.5182 66H43.9091V70.4H39.5182V66ZM100.991 88H105.382V92.4H100.991V88ZM26.3455 79.2H30.7364V83.6H26.3455V79.2ZM35.1273 70.4H39.5182V74.8H35.1273V70.4ZM35.1273 74.8H39.5182V79.2H35.1273V74.8ZM30.7364 79.2H35.1273V83.6H30.7364V79.2ZM26.3455 83.6H30.7364V88H26.3455V83.6ZM26.3455 88H30.7364V92.4H26.3455V88ZM43.9091 61.6H48.3V66H43.9091V61.6ZM57.0818 61.6H61.4727V66H57.0818V61.6ZM43.9091 66H48.3V70.4H43.9091V66ZM48.3 66H52.6909V70.4H48.3V66ZM52.6909 66H57.0818V70.4H52.6909V66ZM48.3 44H52.6909V48.4H48.3V44ZM100.991 92.4H105.382V96.8H100.991V92.4ZM83.4273 96.8H87.8182V101.2H83.4273V96.8ZM83.4273 8.79999H87.8182V13.2H83.4273V8.79999ZM109.773 13.2H114.164V17.6H109.773V13.2ZM48.3 48.4H52.6909V52.8H48.3V48.4ZM48.3 52.8H52.6909V57.2H48.3V52.8ZM48.3 57.2H52.6909V61.6H48.3V57.2ZM70.2545 61.6H74.6454V66H70.2545V61.6ZM65.8636 61.6H70.2545V66H65.8636V61.6ZM87.8182 96.8H92.2091V101.2H87.8182V96.8ZM30.7364 96.8H35.1273V101.2H30.7364V96.8ZM35.1273 96.8H39.5182V101.2H35.1273V96.8ZM39.5182 96.8H43.9091V101.2H39.5182V96.8ZM0 105.6H4.39091V110H0V105.6ZM48.3 0H52.6909V4.39999H48.3V0ZM8.78182 92.4H13.1727V96.8H8.78182V92.4ZM4.39091 96.8H8.78182V101.2H4.39091V96.8ZM0 101.2H4.39091V105.6H0V101.2ZM13.1727 96.8H17.5636V101.2H13.1727V96.8ZM61.4727 61.6H65.8636V66H61.4727V61.6ZM57.0818 66H61.4727V70.4H57.0818V66ZM65.8636 22H70.2545V26.4H65.8636V22ZM74.6454 13.2H79.0364V17.6H74.6454V13.2ZM79.0364 13.2H83.4273V17.6H79.0364V13.2ZM70.2545 13.2H74.6454V17.6H70.2545V13.2ZM65.8636 8.79999H70.2545V13.2H65.8636V8.79999ZM48.3 8.79999H52.6909V13.2H48.3V8.79999ZM65.8636 26.4H70.2545V30.8H65.8636V26.4ZM13.1727 88H17.5636V92.4H13.1727V88ZM26.3455 92.4H30.7364V96.8H26.3455V92.4ZM30.7364 92.4H35.1273V96.8H30.7364V92.4ZM39.5182 17.6H43.9091V22H39.5182V17.6ZM52.6909 13.2H57.0818V17.6H52.6909V13.2ZM57.0818 17.6H61.4727V22H57.0818V17.6ZM61.4727 22H65.8636V26.4H61.4727V22ZM65.8636 30.8H70.2545V35.2H65.8636V30.8ZM52.6909 30.8H57.0818V35.2H52.6909V30.8ZM52.6909 35.2H57.0818V39.6H52.6909V35.2ZM52.6909 39.6H57.0818V44H52.6909V39.6ZM52.6909 44H57.0818V48.4H52.6909V44ZM52.6909 48.4H57.0818V52.8H52.6909V48.4ZM52.6909 52.8H57.0818V57.2H52.6909V52.8ZM52.6909 57.2H57.0818V61.6H52.6909V57.2ZM30.7364 26.4H35.1273V30.8H30.7364V26.4ZM26.3455 30.8H30.7364V35.2H26.3455V30.8ZM21.9545 35.2H26.3455V39.6H21.9545V35.2ZM35.1273 26.4H39.5182V30.8H35.1273V26.4ZM30.7364 30.8H35.1273V35.2H30.7364V30.8ZM26.3455 35.2H30.7364V39.6H26.3455V35.2ZM21.9545 39.6H26.3455V44H21.9545V39.6ZM39.5182 26.4H43.9091V30.8H39.5182V26.4ZM39.5182 30.8H43.9091V35.2H39.5182V30.8ZM87.8182 8.79999H92.2091V13.2H87.8182V8.79999ZM83.4273 13.2H87.8182V17.6H83.4273V13.2ZM100.991 8.79999H105.382V13.2H100.991V8.79999ZM96.6 8.79999H100.991V13.2H96.6V8.79999ZM100.991 13.2H105.382V17.6H100.991V13.2ZM105.382 13.2H109.773V17.6H105.382V13.2ZM92.2091 8.79999H96.6V13.2H92.2091V8.79999ZM96.6 13.2H100.991V17.6H96.6V13.2ZM100.991 17.6H105.382V22H100.991V17.6ZM105.382 17.6H109.773V22H105.382V17.6ZM92.2091 13.2H96.6V17.6H92.2091V13.2ZM96.6 17.6H100.991V22H96.6V17.6ZM100.991 22H105.382V26.4H100.991V22ZM4.39091 26.4H8.78182V30.8H4.39091V26.4ZM8.78182 22H13.1727V26.4H8.78182V22ZM13.1727 17.6H17.5636V22H13.1727V17.6ZM17.5636 13.2H21.9545V17.6H17.5636V13.2ZM21.9545 8.79999H26.3455V13.2H21.9545V8.79999ZM21.9545 4.39999H26.3455V8.79999H21.9545V4.39999ZM52.6909 0H57.0818V4.39999H52.6909V0ZM61.4727 4.39999H65.8636V8.79999H61.4727V4.39999ZM70.2545 8.79999H74.6454V13.2H70.2545V8.79999ZM65.8636 4.39999H70.2545V8.79999H65.8636V4.39999ZM61.4727 0H65.8636V4.39999H61.4727V0ZM57.0818 0H61.4727V4.39999H57.0818V0ZM35.1273 30.8H39.5182V35.2H35.1273V30.8ZM39.5182 35.2H43.9091V39.6H39.5182V35.2ZM35.1273 35.2H39.5182V39.6H35.1273V35.2ZM39.5182 39.6H43.9091V44H39.5182V39.6ZM43.9091 70.4H48.3V74.8H43.9091V70.4ZM39.5182 70.4H43.9091V74.8H39.5182V70.4ZM39.5182 74.8H43.9091V79.2H39.5182V74.8ZM35.1273 79.2H39.5182V83.6H35.1273V79.2ZM30.7364 83.6H35.1273V88H30.7364V83.6ZM79.0364 61.6H83.4273V66H79.0364V61.6ZM79.0364 57.2H83.4273V61.6H79.0364V57.2ZM79.0364 52.8H83.4273V57.2H79.0364V52.8ZM79.0364 48.4H83.4273V52.8H79.0364V48.4ZM79.0364 44H83.4273V48.4H79.0364V44ZM79.0364 39.6H83.4273V44H79.0364V39.6ZM79.0364 35.2H83.4273V39.6H79.0364V35.2Z" fill="black"/>
<path d="M198.218 17.6H193.827V22H198.218V17.6ZM202.609 22H198.218V26.4H202.609V22ZM193.827 13.2H189.436V17.6H193.827V13.2ZM189.436 8.79999H185.045V13.2H189.436V8.79999ZM180.655 0H176.264V4.39999H180.655V0ZM180.655 4.39999H176.264V8.79999H180.655V4.39999ZM171.873 0H167.482V4.39999H171.873V0ZM171.873 4.39999H167.482V8.79999H171.873V4.39999ZM176.264 4.39999H171.873V8.79999H176.264V4.39999ZM176.264 0H171.873V4.39999H176.264V0ZM167.482 0H163.091V4.39999H167.482V0ZM163.091 4.39999H158.7V8.79999H163.091V4.39999ZM167.482 4.39999H163.091V8.79999H167.482V4.39999ZM154.309 4.39999H149.918V8.79999H154.309V4.39999ZM158.7 4.39999H154.309V8.79999H158.7V4.39999ZM145.527 8.79999H141.136V13.2H145.527V8.79999ZM145.527 13.2H141.136V17.6H145.527V13.2ZM145.527 17.6H141.136V22H145.527V17.6ZM149.918 13.2H145.527V17.6H149.918V13.2ZM149.918 8.79999H145.527V13.2H149.918V8.79999ZM149.918 4.39999H145.527V8.79999H149.918V4.39999ZM119.182 4.39999H114.791V8.79999H119.182V4.39999ZM114.791 0H110.4V4.39999H114.791V0ZM110.4 0H106.009V4.39999H110.4V0ZM110.4 4.39999H106.009V8.79999H110.4V4.39999ZM114.791 4.39999H110.4V8.79999H114.791V4.39999ZM101.618 8.79999H97.2273V13.2H101.618V8.79999ZM141.136 13.2H136.745V17.6H141.136V13.2ZM141.136 17.6H136.745V22H141.136V17.6ZM136.745 17.6H132.355V22H136.745V17.6ZM132.355 17.6H127.964V22H132.355V17.6ZM127.964 17.6H123.573V22H127.964V17.6ZM127.964 22H123.573V26.4H127.964V22ZM132.355 22H127.964V26.4H132.355V22ZM136.745 22H132.355V26.4H136.745V22ZM158.7 26.4H154.309V30.8H158.7V26.4ZM158.7 30.8H154.309V35.2H158.7V30.8ZM136.745 26.4H132.355V30.8H136.745V26.4ZM132.355 26.4H127.964V30.8H132.355V26.4ZM127.964 26.4H123.573V30.8H127.964V26.4ZM127.964 30.8H123.573V35.2H127.964V30.8ZM132.355 35.2H127.964V39.6H132.355V35.2ZM136.745 35.2H132.355V39.6H136.745V35.2ZM132.355 30.8H127.964V35.2H132.355V30.8ZM136.745 30.8H132.355V35.2H136.745V30.8ZM141.136 39.6H136.745V44H141.136V39.6ZM141.136 35.2H136.745V39.6H141.136V35.2ZM136.745 39.6H132.355V44H136.745V39.6ZM132.355 39.6H127.964V44H132.355V39.6ZM163.091 26.4H158.7V30.8H163.091V26.4ZM163.091 30.8H158.7V35.2H163.091V30.8ZM163.091 35.2H158.7V39.6H163.091V35.2ZM163.091 39.6H158.7V44H163.091V39.6ZM158.7 61.6H154.309V66H158.7V61.6ZM154.309 61.6H149.918V66H154.309V61.6ZM141.136 44H136.745V48.4H141.136V44ZM141.136 48.4H136.745V52.8H141.136V48.4ZM141.136 52.8H136.745V57.2H141.136V52.8ZM141.136 57.2H136.745V61.6H141.136V57.2ZM136.745 44H132.355V48.4H136.745V44ZM136.745 48.4H132.355V52.8H136.745V48.4ZM136.745 52.8H132.355V57.2H136.745V52.8ZM136.745 57.2H132.355V61.6H136.745V57.2ZM141.136 66H136.745V70.4H141.136V66ZM136.745 66H132.355V70.4H136.745V66ZM132.355 61.6H127.964V66H132.355V61.6ZM132.355 57.2H127.964V61.6H132.355V57.2ZM132.355 52.8H127.964V57.2H132.355V52.8ZM132.355 48.4H127.964V52.8H132.355V48.4ZM132.355 44H127.964V48.4H132.355V44ZM132.355 66H127.964V70.4H132.355V66ZM127.964 70.4H123.573V74.8H127.964V70.4ZM127.964 74.8H123.573V79.2H127.964V74.8ZM132.355 74.8H127.964V79.2H132.355V74.8ZM136.745 74.8H132.355V79.2H136.745V74.8ZM141.136 74.8H136.745V79.2H141.136V74.8ZM141.136 70.4H136.745V74.8H141.136V70.4ZM136.745 70.4H132.355V74.8H136.745V70.4ZM132.355 70.4H127.964V74.8H132.355V70.4ZM185.045 83.6H180.655V88H185.045V83.6ZM189.436 88H185.045V92.4H189.436V88ZM193.827 92.4H189.436V96.8H193.827V92.4ZM141.136 79.2H136.745V83.6H141.136V79.2ZM136.745 79.2H132.355V83.6H136.745V79.2ZM132.355 79.2H127.964V83.6H132.355V79.2ZM127.964 79.2H123.573V83.6H127.964V79.2ZM189.436 92.4H185.045V96.8H189.436V92.4ZM185.045 92.4H180.655V96.8H185.045V92.4ZM185.045 96.8H180.655V101.2H185.045V96.8ZM189.436 96.8H185.045V101.2H189.436V96.8ZM180.655 96.8H176.264V101.2H180.655V96.8ZM158.7 92.4H154.309V96.8H158.7V92.4ZM158.7 96.8H154.309V101.2H158.7V96.8ZM163.091 96.8H158.7V101.2H163.091V96.8ZM154.309 88H149.918V92.4H154.309V88ZM141.136 83.6H136.745V88H141.136V83.6ZM136.745 83.6H132.355V88H136.745V83.6ZM132.355 83.6H127.964V88H132.355V83.6ZM127.964 83.6H123.573V88H127.964V83.6ZM127.964 88H123.573V92.4H127.964V88ZM132.355 88H127.964V92.4H132.355V88ZM136.745 88H132.355V92.4H136.745V88ZM141.136 88H136.745V92.4H141.136V88ZM141.136 92.4H136.745V96.8H141.136V92.4ZM141.136 96.8H136.745V101.2H141.136V96.8ZM136.745 96.8H132.355V101.2H136.745V96.8ZM132.355 96.8H127.964V101.2H132.355V96.8ZM132.355 92.4H127.964V96.8H132.355V92.4ZM127.964 92.4H123.573V96.8H127.964V92.4ZM136.745 92.4H132.355V96.8H136.745V92.4ZM127.964 96.8H123.573V101.2H127.964V96.8ZM132.355 101.2H127.964V105.6H132.355V101.2ZM132.355 105.6H127.964V110H132.355V105.6ZM127.964 105.6H123.573V110H127.964V105.6ZM127.964 101.2H123.573V105.6H127.964V101.2ZM119.182 101.2H114.791V105.6H119.182V101.2ZM119.182 105.6H114.791V110H119.182V105.6ZM123.573 105.6H119.182V110H123.573V105.6ZM110.4 92.4H106.009V96.8H110.4V92.4ZM110.4 96.8H106.009V101.2H110.4V96.8ZM114.791 96.8H110.4V101.2H114.791V96.8ZM114.791 101.2H110.4V105.6H114.791V101.2ZM136.745 101.2H132.355V105.6H136.745V101.2ZM167.482 101.2H163.091V105.6H167.482V101.2ZM171.873 101.2H167.482V105.6H171.873V101.2ZM171.873 105.6H167.482V110H171.873V105.6ZM167.482 105.6H163.091V110H167.482V105.6ZM176.264 101.2H171.873V105.6H176.264V101.2ZM180.655 105.6H176.264V110H180.655V105.6ZM176.264 105.6H171.873V110H176.264V105.6ZM180.655 101.2H176.264V105.6H180.655V101.2ZM163.091 101.2H158.7V105.6H163.091V101.2ZM154.309 92.4H149.918V96.8H154.309V92.4ZM106.009 4.39999H101.618V8.79999H106.009V4.39999ZM198.218 96.8H193.827V101.2H198.218V96.8ZM185.045 88H180.655V92.4H185.045V88ZM123.573 101.2H119.182V105.6H123.573V101.2ZM202.609 101.2H198.218V105.6H202.609V101.2ZM163.091 57.2H158.7V61.6H163.091V57.2ZM163.091 48.4H158.7V52.8H163.091V48.4ZM163.091 52.8H158.7V57.2H163.091V52.8ZM163.091 44H158.7V48.4H163.091V44ZM158.7 35.2H154.309V39.6H158.7V35.2ZM158.7 39.6H154.309V44H158.7V39.6ZM176.264 74.8H171.873V79.2H176.264V74.8ZM154.309 8.79999H149.918V13.2H154.309V8.79999ZM127.964 66H123.573V70.4H127.964V66ZM185.045 101.2H180.655V105.6H185.045V101.2ZM171.873 22H167.482V26.4H171.873V22ZM167.482 22H163.091V26.4H167.482V22ZM163.091 22H158.7V26.4H163.091V22ZM163.091 0H158.7V4.39999H163.091V0ZM167.482 66H163.091V70.4H167.482V66ZM106.009 88H101.618V92.4H106.009V88ZM180.655 79.2H176.264V83.6H180.655V79.2ZM171.873 70.4H167.482V74.8H171.873V70.4ZM171.873 74.8H167.482V79.2H171.873V74.8ZM176.264 79.2H171.873V83.6H176.264V79.2ZM180.655 83.6H176.264V88H180.655V83.6ZM180.655 88H176.264V92.4H180.655V88ZM163.091 61.6H158.7V66H163.091V61.6ZM149.918 61.6H145.527V66H149.918V61.6ZM163.091 66H158.7V70.4H163.091V66ZM158.7 66H154.309V70.4H158.7V66ZM154.309 66H149.918V70.4H154.309V66ZM158.7 44H154.309V48.4H158.7V44ZM106.009 92.4H101.618V96.8H106.009V92.4ZM123.573 96.8H119.182V101.2H123.573V96.8ZM123.573 8.79999H119.182V13.2H123.573V8.79999ZM97.2273 13.2H92.8364V17.6H97.2273V13.2ZM158.7 48.4H154.309V52.8H158.7V48.4ZM158.7 52.8H154.309V57.2H158.7V52.8ZM158.7 57.2H154.309V61.6H158.7V57.2ZM136.745 61.6H132.355V66H136.745V61.6ZM141.136 61.6H136.745V66H141.136V61.6ZM119.182 96.8H114.791V101.2H119.182V96.8ZM176.264 96.8H171.873V101.2H176.264V96.8ZM171.873 96.8H167.482V101.2H171.873V96.8ZM167.482 96.8H163.091V101.2H167.482V96.8ZM207 105.6H202.609V110H207V105.6ZM158.7 0H154.309V4.39999H158.7V0ZM198.218 92.4H193.827V96.8H198.218V92.4ZM202.609 96.8H198.218V101.2H202.609V96.8ZM207 101.2H202.609V105.6H207V101.2ZM193.827 96.8H189.436V101.2H193.827V96.8ZM145.527 61.6H141.136V66H145.527V61.6ZM149.918 66H145.527V70.4H149.918V66ZM141.136 22H136.745V26.4H141.136V22ZM132.355 13.2H127.964V17.6H132.355V13.2ZM127.964 13.2H123.573V17.6H127.964V13.2ZM136.745 13.2H132.355V17.6H136.745V13.2ZM141.136 8.79999H136.745V13.2H141.136V8.79999ZM158.7 8.79999H154.309V13.2H158.7V8.79999ZM141.136 26.4H136.745V30.8H141.136V26.4ZM193.827 88H189.436V92.4H193.827V88ZM180.655 92.4H176.264V96.8H180.655V92.4ZM176.264 92.4H171.873V96.8H176.264V92.4ZM167.482 17.6H163.091V22H167.482V17.6ZM154.309 13.2H149.918V17.6H154.309V13.2ZM149.918 17.6H145.527V22H149.918V17.6ZM145.527 22H141.136V26.4H145.527V22ZM141.136 30.8H136.745V35.2H141.136V30.8ZM154.309 30.8H149.918V35.2H154.309V30.8ZM154.309 35.2H149.918V39.6H154.309V35.2ZM154.309 39.6H149.918V44H154.309V39.6ZM154.309 44H149.918V48.4H154.309V44ZM154.309 48.4H149.918V52.8H154.309V48.4ZM154.309 52.8H149.918V57.2H154.309V52.8ZM154.309 57.2H149.918V61.6H154.309V57.2ZM176.264 26.4H171.873V30.8H176.264V26.4ZM180.655 30.8H176.264V35.2H180.655V30.8ZM185.045 35.2H180.655V39.6H185.045V35.2ZM171.873 26.4H167.482V30.8H171.873V26.4ZM176.264 30.8H171.873V35.2H176.264V30.8ZM180.655 35.2H176.264V39.6H180.655V35.2ZM185.045 39.6H180.655V44H185.045V39.6ZM167.482 26.4H163.091V30.8H167.482V26.4ZM167.482 30.8H163.091V35.2H167.482V30.8ZM119.182 8.79999H114.791V13.2H119.182V8.79999ZM123.573 13.2H119.182V17.6H123.573V13.2ZM106.009 8.79999H101.618V13.2H106.009V8.79999ZM110.4 8.79999H106.009V13.2H110.4V8.79999ZM106.009 13.2H101.618V17.6H106.009V13.2ZM101.618 13.2H97.2273V17.6H101.618V13.2ZM114.791 8.79999H110.4V13.2H114.791V8.79999ZM110.4 13.2H106.009V17.6H110.4V13.2ZM106.009 17.6H101.618V22H106.009V17.6ZM101.618 17.6H97.2273V22H101.618V17.6ZM114.791 13.2H110.4V17.6H114.791V13.2ZM110.4 17.6H106.009V22H110.4V17.6ZM106.009 22H101.618V26.4H106.009V22ZM202.609 26.4H198.218V30.8H202.609V26.4ZM198.218 22H193.827V26.4H198.218V22ZM193.827 17.6H189.436V22H193.827V17.6ZM189.436 13.2H185.045V17.6H189.436V13.2ZM185.045 8.79999H180.655V13.2H185.045V8.79999ZM185.045 4.39999H180.655V8.79999H185.045V4.39999ZM154.309 0H149.918V4.39999H154.309V0ZM145.527 4.39999H141.136V8.79999H145.527V4.39999ZM136.745 8.79999H132.355V13.2H136.745V8.79999ZM141.136 4.39999H136.745V8.79999H141.136V4.39999ZM145.527 0H141.136V4.39999H145.527V0ZM149.918 0H145.527V4.39999H149.918V0ZM171.873 30.8H167.482V35.2H171.873V30.8ZM167.482 35.2H163.091V39.6H167.482V35.2ZM171.873 35.2H167.482V39.6H171.873V35.2ZM167.482 39.6H163.091V44H167.482V39.6ZM163.091 70.4H158.7V74.8H163.091V70.4ZM167.482 70.4H163.091V74.8H167.482V70.4ZM167.482 74.8H163.091V79.2H167.482V74.8ZM171.873 79.2H167.482V83.6H171.873V79.2ZM176.264 83.6H171.873V88H176.264V83.6ZM127.964 61.6H123.573V66H127.964V61.6ZM127.964 57.2H123.573V61.6H127.964V57.2ZM127.964 52.8H123.573V57.2H127.964V52.8ZM127.964 48.4H123.573V52.8H127.964V48.4ZM127.964 44H123.573V48.4H127.964V44ZM127.964 39.6H123.573V44H127.964V39.6ZM127.964 35.2H123.573V39.6H127.964V35.2Z" fill="black"/>
</g>
<defs>
<clipPath id="clip0_58_1764">
<rect width="207" height="110" fill="white"/>
</clipPath>
</defs>
</svg>
