<svg width="680" height="110" viewBox="0 0 680 110" fill="none" xmlns="http://www.w3.org/2000/svg">
<g clip-path="url(#clip0_58_1743)">
<path d="M30.8937 64.6585H68.0891L49.7988 13.4764H49.4914L30.8937 64.6585ZM41.8064 0.258195H57.9449L100.827 110H84.6887L72.7001 76.9545H26.2827L13.9867 110H-0.9222L41.8064 0.258195ZM118.263 64.6585H155.458L137.168 13.4764H136.86L118.263 64.6585ZM129.175 0.258195H145.314L188.196 110H172.058L160.069 76.9545H113.652L101.356 110H86.4466L129.175 0.258195ZM209.813 12.5542H173.232V0.258195H260.995V12.5542H224.414V110H209.813V12.5542ZM273.171 0.258195H348.945V12.5542H287.772V47.4441H344.795V59.7401H287.772V97.704H349.406V110H273.171V0.258195ZM367.132 0.258195H381.733V97.704H439.832V110H367.132V0.258195ZM453.152 0.258195H467.754V110H453.152V0.258195ZM492.313 0.258195H568.087V12.5542H506.915V47.4441H563.937V59.7401H506.915V97.704H568.548V110H492.313V0.258195ZM586.274 0.258195H637.917C648.369 0.258195 656.515 2.81986 662.356 7.9432C668.299 13.0665 671.27 20.0855 671.27 29.0001C671.27 35.6604 669.733 41.501 666.659 46.5219C663.688 51.5428 658.872 54.9754 652.212 56.8198V57.1272C655.388 57.742 657.95 58.7667 659.897 60.2012C661.946 61.6357 663.534 63.3777 664.661 65.427C665.891 67.3739 666.762 69.5769 667.274 72.0361C667.889 74.4953 668.35 77.057 668.657 79.7211C668.862 82.3852 669.016 85.1006 669.119 87.8672C669.221 90.6338 669.477 93.3492 669.887 96.0133C670.297 98.6774 670.86 101.239 671.578 103.698C672.397 106.055 673.576 108.156 675.113 110H658.821C657.796 108.873 657.079 107.336 656.669 105.389C656.361 103.442 656.157 101.29 656.054 98.9336C655.952 96.4744 655.849 93.8615 655.747 91.0949C655.644 88.3283 655.337 85.6129 654.824 82.9488C654.415 80.2847 653.902 77.7742 653.287 75.4175C652.673 72.9583 651.699 70.8577 650.367 69.1158C649.035 67.2714 647.293 65.8369 645.141 64.8122C642.99 63.6851 640.12 63.1215 636.534 63.1215H600.876V110H586.274V0.258195ZM631.308 50.8255C634.69 50.8255 637.917 50.5693 640.991 50.057C644.065 49.5447 646.73 48.5712 648.984 47.1367C651.341 45.5997 653.185 43.6016 654.517 41.1424C655.952 38.5807 656.669 35.3018 656.669 31.3056C656.669 25.7724 655.132 21.2639 652.058 17.78C648.984 14.2961 644.014 12.5542 637.149 12.5542H600.876V50.8255H631.308Z" fill="black"/>
</g>
<defs>
<clipPath id="clip0_58_1743">
<rect width="680" height="110" fill="white"/>
</clipPath>
</defs>
</svg>
